<svg width="512" height="512" viewBox="0 0 512 512" fill="none" xmlns="http://www.w3.org/2000/svg">
<g clip-path="url(#clip0_73_101)">
<path d="M257.898 307.25H199.656V456H122.82V57.875H256.258C278.315 57.875 298.276 60.5182 316.141 65.8047C334.005 70.9089 349.318 78.474 362.078 88.5C374.656 98.526 384.318 111.013 391.062 125.961C397.99 140.909 401.453 158.227 401.453 177.914C401.453 192.133 399.721 204.984 396.258 216.469C392.977 227.771 388.237 237.888 382.039 246.82C375.659 255.935 368.003 263.865 359.07 270.609C350.32 277.354 340.477 283.188 329.539 288.109L415.125 452.445V456H332.82L257.898 307.25ZM199.656 244.906H256.531C268.38 244.906 278.771 243.266 287.703 239.984C296.818 236.521 304.201 231.599 309.852 225.219C314.591 220.115 318.146 214.008 320.516 206.898C323.068 199.789 324.344 191.859 324.344 183.109C324.344 172.536 322.703 163.24 319.422 155.219C316.323 147.016 311.583 140.271 305.203 134.984C299.552 130.245 292.625 126.599 284.422 124.047C276.219 121.495 266.831 120.219 256.258 120.219H199.656V244.906Z" fill="white"/>
</g>
<rect x="4" y="4" width="504" height="504" stroke="white" stroke-width="8"/>
<defs>
<clipPath id="clip0_73_101">
<rect width="512" height="512" fill="white"/>
</clipPath>
</defs>
</svg>
